# xmcd CD database file
#
# Track frame offsets:
#	150
#	18142
#	32605
#	45570
#	65437
#	81012
#	96337
#	115717
#	128602
#	147602
#
# Disc length: 2188 seconds
#
# Revision: 3
# Processed by: cddbd v1.5.2PL0 Copyright (c) Steve Scherf et al.
# Submitted via: CDex 1.79
#
DISCID=7b088a0a
DTITLE=Freddie King - Getting Ready...
DYEAR=1971
DGENRE=Blues
TTITLE0=Same Old Blues
TTITLE1=Dust My Broom
TTITLE2=Worried Life Blues
TTITLE3=Five Long Years
TTITLE4=Key to the Highway
TTITLE5=Going Down
TTITLE6=Living on the Highway
TTITLE7=Walking by Myself
TTITLE8=I'm Tore Down
TTITLE9=Palace of the King
EXTD=YEAR: 1971
EXTT0=
EXTT1=
EXTT2=
EXTT3=
EXTT4=
EXTT5=
EXTT6=
EXTT7=
EXTT8=
EXTT9=
PLAYORDER=
